<?xml version="1.0" encoding="UTF-8"?><svg id="b" xmlns="http://www.w3.org/2000/svg" viewBox="0 0 32 32"><defs><style>.d{fill:#fff;}</style></defs><g id="c"><rect class="d" width="32" height="32"/><path d="M9.29,9.18l1.77,1.01,3.13.96-.12,3.49,1.77,2.34,2.42,1.95-.03.35-.14-2.51.17-2.5-.08-2.5.27-1.94,1.64-.81-.94,2.85.64,2.6.3,2.6.93,2.6-.99,2.84-2.37-.54-.85-2.73-3.14-1.52-.69-3-2.17-2.1-.63-.38.45,2.52,1.65,2.5-2.05,2.5,2.03,3.22-1.95-1.45.12-1.87.1-2.6-1.6-2.6-.47-2.59.81-2.7Z"/><path d="M22.79,9.57l.72,2.29-.97,2.6-.58,2.6.27,2.6-.07,1.85.56.84.28.28-2.15-.09.76-1.19.39-1.68-.62-2.6-.18-2.6.43-2.6-.7-2.8s1.88.51,1.88.51Z"/></g></svg>